<svg width="13" height="20" viewBox="0 0 13 20" fill="none" xmlns="http://www.w3.org/2000/svg">
<g clip-path="url(#clip0_1507_17839)">
<path d="M0 12.5788C0 13.2891 0.466039 13.7572 1.20189 13.7572H5.62517V17.6603C5.62517 18.939 6.14845 20.0004 6.35285 20.0004C6.54908 20.0004 7.07235 18.939 7.07235 17.6603V13.7572H11.4957C12.2315 13.7572 12.6975 13.2891 12.6975 12.5788C12.6975 10.8153 11.3157 8.95151 9.01828 8.09901L8.74844 4.26282C9.94217 3.56912 10.9233 2.7835 11.3485 2.22353C11.561 1.93936 11.6673 1.6552 11.6673 1.40447C11.6673 0.89465 11.2831 0.518555 10.7107 0.518555H1.99497C1.41447 0.518555 1.03836 0.89465 1.03836 1.40447C1.03836 1.6552 1.13648 1.93936 1.34906 2.22353C1.77422 2.7835 2.75536 3.56912 3.94907 4.26282L3.67925 8.09901C1.38176 8.95151 0 10.8153 0 12.5788Z" fill="white"/>
</g>
<defs>
<clipPath id="clip0_1507_17839">
<rect width="13" height="20" fill="white"/>
</clipPath>
</defs>
</svg>
