<svg width="643" height="440" viewBox="0 0 643 440" fill="none" xmlns="http://www.w3.org/2000/svg">
<path d="M0 160C0 103.995 0 75.9921 10.8993 54.6009C20.4867 35.7847 35.7847 20.4867 54.6009 10.8993C75.9921 0 103.995 0 160 0L372 0C428.005 0 456.008 0 477.399 10.8993C496.215 20.4867 511.513 35.7847 521.101 54.6009C532 75.9921 532 103.995 532 160V260.454C532 322.567 532 353.624 519.482 376.229C508.488 396.081 491.069 411.603 470.087 420.246C446.194 430.088 415.343 426.524 353.64 419.397L123.301 392.789C111.125 391.382 105.036 390.679 99.0486 391.12C93.735 391.511 88.4916 392.569 83.442 394.268C77.7519 396.184 72.4127 399.193 61.7342 405.211L0 440L0 160Z" fill="white"/>
<path d="M414.615 278.094C414.615 294.058 396.767 307 374.752 307C352.736 307 334.889 294.058 334.889 278.094C334.889 262.129 352.736 264 374.752 264C396.767 264 414.615 262.129 414.615 278.094Z" fill="#5D7AF5"/>
<ellipse cx="317" cy="202" rx="16" ry="20" fill="#5D7AF5"/>
<ellipse cx="423" cy="202" rx="16" ry="20" fill="#5D7AF5"/>
<path d="M459 296.5C471.426 296.5 481.5 306.574 481.5 319V367C481.5 379.426 471.426 389.5 459 389.5C446.574 389.5 436.5 379.426 436.5 367V319C436.5 306.574 446.574 296.5 459 296.5Z" fill="white" stroke="#5D7AF5" stroke-width="21"/>
<rect x="487.5" y="273.5" width="45" height="138" rx="22.5" fill="white" stroke="#5D7AF5" stroke-width="21"/>
<rect x="538.5" y="283.5" width="44" height="118" rx="22" fill="white" stroke="#5D7AF5" stroke-width="21"/>
<rect x="588.5" y="310.5" width="44" height="64" rx="22" fill="white" stroke="#5D7AF5" stroke-width="21"/>
</svg>
