<svg width="19" height="20" viewBox="0 0 19 20" fill="none" xmlns="http://www.w3.org/2000/svg">
<g clip-path="url(#clip0_1507_18062)">
<path d="M10.5418 13.7572H10.0707V17.6603C10.0707 18.939 9.55338 20.0004 9.34801 20.0004C9.14273 20.0004 8.62528 18.939 8.62528 17.6603V13.7572H4.17406C3.43492 13.7572 2.9668 13.2891 2.9668 12.5788C2.9668 11.1317 3.90142 9.61701 5.51784 8.65017L10.5418 13.7572ZM14.6863 1.40447C14.6863 1.6552 14.5877 1.93936 14.3659 2.22353C13.9389 2.78349 12.9534 3.56912 11.7544 4.26282L12.0253 8.09901C14.3331 8.95151 15.721 10.8153 15.721 12.5788C15.721 13.1266 15.4426 13.5303 14.9755 13.6853L6.8539 5.42478L6.93351 4.26282C5.73447 3.56912 4.74894 2.78349 4.3301 2.22353C4.10835 1.93936 4.00981 1.6552 4.00981 1.40447C4.00981 0.89465 4.38759 0.518555 4.97068 0.518555H13.7254C14.3003 0.518555 14.6863 0.89465 14.6863 1.40447Z" fill="white"/>
<path d="M1.14347 2.82484L15.9919 17.9189C16.2465 18.1697 16.649 18.1697 16.8872 17.9189C17.1335 17.6681 17.1417 17.2586 16.8872 17.0079L2.04686 1.91385C1.80048 1.66312 1.38985 1.65476 1.14347 1.91385C0.905303 2.15623 0.905303 2.57411 1.14347 2.82484Z" fill="white"/>
</g>
<defs>
<clipPath id="clip0_1507_18062">
<rect width="19" height="20" fill="white"/>
</clipPath>
</defs>
</svg>
