<svg width="16" height="20" viewBox="0 0 16 20" fill="none" xmlns="http://www.w3.org/2000/svg">
<g clip-path="url(#clip0_1501_15438)">
<path d="M5.37658 15.9917C5.06031 15.9917 4.85757 15.8004 4.84135 15.4844L4.59807 6.32849C4.58996 6.02079 4.79269 5.82121 5.11708 5.82121C5.41713 5.82121 5.62797 6.01248 5.63608 6.32018L5.89559 15.4844C5.9037 15.7921 5.69285 15.9917 5.37658 15.9917ZM7.84996 15.9917C7.5337 15.9917 7.31474 15.7921 7.31474 15.4844V6.32849C7.31474 6.02079 7.5337 5.82121 7.84996 5.82121C8.16623 5.82121 8.39328 6.02079 8.39328 6.32849V15.4844C8.39328 15.7921 8.16623 15.9917 7.84996 15.9917ZM10.3315 15.9917C10.0152 15.9917 9.80431 15.7921 9.81245 15.4844L10.0638 6.32849C10.072 6.01248 10.2828 5.82121 10.5828 5.82121C10.9073 5.82121 11.11 6.02079 11.1018 6.32849L10.8586 15.4844C10.8423 15.8004 10.6396 15.9917 10.3315 15.9917ZM4.28991 3.80042H5.57932V2.02079C5.57932 1.54678 5.9037 1.23909 6.39026 1.23909H9.29345C9.77998 1.23909 10.1044 1.54678 10.1044 2.02079V3.80042H11.3938V1.93763C11.3938 0.731809 10.6315 0 9.38263 0H6.30106C5.0522 0 4.28991 0.731809 4.28991 1.93763V3.80042ZM0.60821 4.4657H15.0998C15.4323 4.4657 15.6999 4.17464 15.6999 3.83368C15.6999 3.49272 15.4323 3.20998 15.0998 3.20998H0.60821C0.283832 3.20998 0 3.49272 0 3.83368C0 4.18296 0.283832 4.4657 0.60821 4.4657ZM4.13583 18.5197H11.5722C12.7318 18.5197 13.5104 17.7463 13.5672 16.5572L14.1348 4.29106H1.56513L2.1409 16.5655C2.19766 17.7547 2.95995 18.5197 4.13583 18.5197Z" fill="white"/>
</g>
<defs>
<clipPath id="clip0_1501_15438">
<rect width="16" height="20" fill="white"/>
</clipPath>
</defs>
</svg>
