<svg width="20" height="20" viewBox="0 0 20 20" fill="none" xmlns="http://www.w3.org/2000/svg">
<path d="M10.0064 0C10.3454 3.40041e-05 10.6295 0.122992 10.8583 0.36877C11.0956 0.61455 11.2143 0.898685 11.2143 1.22072V8.78566H18.792C19.1141 8.7857 19.3939 8.90436 19.6312 9.14166C19.877 9.37898 20 9.66738 20 10.0064C20 10.3453 19.8769 10.6333 19.6312 10.8706C19.3939 11.1079 19.1141 11.2266 18.792 11.2266H11.2143V18.792C11.2143 19.1226 11.0956 19.4067 10.8583 19.644C10.6295 19.8813 10.3454 20 10.0064 20C9.66739 20 9.37898 19.8813 9.14166 19.644C8.90436 19.4067 8.7857 19.1226 8.78566 18.792V11.2266H1.22072C0.890147 11.2266 0.601815 11.1079 0.356003 10.8706C0.118771 10.6333 3.28266e-05 10.3453 0 10.0064C0 9.66733 0.118668 9.379 0.356003 9.14166C0.601815 8.90433 0.890147 8.78566 1.22072 8.78566H8.78566V1.22072C8.78566 0.898635 8.90435 0.614576 9.14166 0.36877C9.379 0.122958 9.66733 0 10.0064 0Z" fill="white"/>
</svg>
